<?xml version="1.0" encoding="utf-8"?>
<!-- Generator: Adobe Illustrator 18.0.0, SVG Export Plug-In . SVG Version: 6.00 Build 0)  -->
<!DOCTYPE svg PUBLIC "-//W3C//DTD SVG 1.1//EN" "http://www.w3.org/Graphics/SVG/1.1/DTD/svg11.dtd">
<svg version="1.1" xmlns="http://www.w3.org/2000/svg" xmlns:xlink="http://www.w3.org/1999/xlink" x="0px" y="0px"
     viewBox="0 0 960 560" enable-background="new 0 0 960 560" xml:space="preserve">
<g id="Layer_10">
    <g>
        <linearGradient id="SVGID_1_" gradientUnits="userSpaceOnUse" x1="847.5579" y1="-71.8769" x2="64.5971" y2="588.09">
            <stop  offset="0.2611" style="stop-color:#000827"/>
            <stop  offset="0.3928" style="stop-color:#030827"/>
            <stop  offset="0.4929" style="stop-color:#0D0927"/>
            <stop  offset="0.5827" style="stop-color:#1D0A27"/>
            <stop  offset="0.6664" style="stop-color:#340C26"/>
            <stop  offset="0.746" style="stop-color:#520F26"/>
            <stop  offset="0.8223" style="stop-color:#761226"/>
            <stop  offset="0.8962" style="stop-color:#A21625"/>
            <stop  offset="0.9663" style="stop-color:#D31A24"/>
            <stop  offset="1" style="stop-color:#ED1C24"/>
        </linearGradient>
        <path fill="url(#SVGID_1_)" d="M40,226.2c24.3-39.5,35.9-88,70.6-118.8c37.2-32.9,91.6-37,141.1-32.2
            c49.4,4.8,99.1,16.6,148.2,9.1c101.6-15.5,178-109.8,279.8-124c56.4-7.9,116,11.7,156.8,51.5c8.5,8.3,16.4,17.8,19.8,29.2
            c3.2,10.8,1.9,22.6-1.4,33.4c-13.8,44.9-61,76.5-65.1,123.3c-3.7,42,28.9,78.3,36.9,119.7c6.8,35-5.8,73.2-32,97.4
            c-42.4,39-107.9,36.8-164.4,25.6c-56.5-11.2-115.1-29-170.6-13.2c-23.2,6.6-44.3,18.7-66,29.3c-43.5,21.2-89.8,36.3-137,46.8
            c-37.4,8.3-76.5,13.8-113.9,5.3s-72.9-33.4-84.9-69.8c-14-42.2,16.4-90.5-7.4-132.3c-7.5-13.1-12.3-27.6-16.9-42
            C28.6,250.1,31.2,238.4,40,226.2"/>
    </g>
</g>
<g id="tire">
    <path stroke="#000000" stroke-miterlimit="10" d="M348.3,349.9c1.2,13.3-11.7,24.4-27.3,23.3c-12.3-0.8-22.2-9.3-23.2-19.8
        c-1.2-13.3,11.7-24.4,27.3-23.3C337.3,330.9,347.3,339.4,348.3,349.9z"/>
    <circle fill="#FFFFFF" stroke="#000000" stroke-miterlimit="10" cx="322.3" cy="347.3" r="12"/>
</g>
<g id="steps">
    <polygon fill="#005082" points="547.3,393.5 445.7,393.5 450.5,379.5 542.5,379.5     "/>
    <polygon fill="#005082" points="545.7,376.7 447.3,376.7 453,361.8 540,361.8     "/>
    <line fill="#FFFFFF" stroke="#000000" stroke-width="3" stroke-miterlimit="10" x1="457.5" y1="377" x2="457.5" y2="382"/>
    <line fill="#FFFFFF" stroke="#000000" stroke-width="3" stroke-miterlimit="10" x1="531.5" y1="377" x2="531.5" y2="382"/>
</g>
<g id="Layer_1">
    <g>
        <g>
            <path d="M319.8,244.3c-4.1-2-2-6.5,0.8-8.4c2.7-1.9,6.8-2,9.9-2.1c5.4-0.1,10.4,2.2,15.8,1.8c4.6-0.4,9-2.7,13.4-4.1
                c5.7-1.9,11.9-1.9,17.8-0.8c1.9,0.3,2.7-2.5,0.8-2.9c-7.2-1.3-14.1-0.9-21,1.4c-4.2,1.4-8.2,3.2-12.6,3.6
                c-4.6,0.4-9.5-1.7-14.2-1.9c-5.6-0.2-11.5,1.3-14.9,5.9c-2.5,3.3-0.8,8.5,2.7,10.2C320,247.7,321.5,245.2,319.8,244.3
                L319.8,244.3z"/>
        </g>
    </g>
    <g>
        <defs>
            <path id="XMLID_3_" d="M196.5,334.2V232.8c0-13.7,2.6-27.4,7.7-40.1l14.4-36.3c5.5-13.8,18.8-22.9,33.7-22.9h299.7
                c10.3,0,20.1,4.1,27.4,11.4l63,63.4c3.3,3.3,5.2,7.8,5.2,12.5v123.4c0,9.9-8.1,17.8-17.9,17.7l-262.1-3.1
                c-4.6-0.1-9-1.9-12.2-5.1l-7.1-7c-3.3-3.3-7.8-5.1-12.4-5.1h-24.4c-4.7,0-9.2,1.9-12.5,5.2l-9.4,9.4c-3.3,3.3-7.7,5.1-12.4,5.2
                l-62.7,0.5c-9.8,0.1-17.9-7.9-17.9-17.7V334.2"/>
        </defs>
        <use xlink:href="#XMLID_3_"  overflow="visible" fill="#005082"/>
        <clipPath id="XMLID_7_">
            <use xlink:href="#XMLID_3_"  overflow="visible"/>
        </clipPath>
        <rect x="196.8" y="333.5" clip-path="url(#XMLID_7_)" fill="#00A8CC" width="450.2" height="19.5"/>
    </g>
</g>
<g id="stripes">
    <rect x="196.6" y="228.4" fill="#00A8CC" width="450.9" height="48.6"/>
</g>
<g id="window">
    <path id="XMLID_1_" fill="#000827" stroke="#000000" stroke-miterlimit="10" d="M417.8,249.5H253.2c-2,0-3.7-1.6-3.7-3.7v-61.7
        c0-2,1.6-3.7,3.7-3.7h164.7c2,0,3.7,1.6,3.7,3.7v61.7C421.5,247.9,419.9,249.5,417.8,249.5z"/>
    <path id="XMLID_2_" fill="#FFA41B" stroke="#000000" stroke-miterlimit="10" d="M413.3,247.7H257.7c-2,0-3.7-1.6-3.7-3.7v-58
        c0-2,1.6-3.7,3.7-3.7h155.5c2,0,3.7,1.6,3.7,3.7v58C416.9,246,415.3,247.7,413.3,247.7z"/>
    <polyline fill="#000839" stroke="#000000" stroke-miterlimit="10" points="254,213.5 416.6,213.5 416.6,217.5 254.5,217.5
        254.5,214     "/>
</g>
<g id="door">
    <path fill="#FFA41B" stroke="#000827" stroke-width="5" stroke-miterlimit="10" d="M538.5,351.1V186.9c0-1.9-1.5-3.4-3.4-3.4h-80.3
        c-1.9,0-3.4,1.5-3.4,3.4v164.3c0,1.9,1.5,3.4,3.4,3.4h80.3C537,354.5,538.5,353,538.5,351.1z"/>
    <rect x="483.4" y="245.6" fill="none" stroke="#000000" stroke-width="3" stroke-miterlimit="10" width="55.6" height="25.4"/>
    <rect x="455.5" y="245.6" fill="#80520E" stroke="#000000" stroke-width="3" stroke-miterlimit="10" width="68.1" height="25.4"/>
    <rect x="483.9" y="245.6" fill="#402907" stroke="#000000" stroke-width="3" stroke-miterlimit="10" width="40.5" height="25.4"/>
    <rect x="509.2" y="253.3" stroke="#000000" stroke-miterlimit="10" width="15.2" height="17.7"/>
</g>
<g id="cat">
    <g>
        <path fill="#000827" d="M399.1,247.5c1-0.9,0.5-2.7-0.6-3.4c-1.1-0.7-2.5-0.6-3.9-0.6c-3.4,0.1-6.8-0.2-10.2-0.8
            c-1.6-0.3-3.4-1.2-3.4-2.9c0-2.4-4.2-7.7-0.9-7.7s3.7-3.7,3.7-3.7c0-6.3-2.5-3.5-3-7.5c-1,0.7-2.1,1.3-3.3,1.8
            c-2.3,0.9-5.3,0.9-7-0.9c0.9,2.6,0,5.7-2.1,7.5c-1.7,1.4-4,2-6.2,2.2c-5.5,0.6-11-0.6-16.5-1c-5.5-0.4-11.5,0-15.9,3.3
            c-3.1,2.3-5.2,5.8-8.2,8.1c-4.2,3.3-9.8,4-15.1,4.7c0,0-5.2,3,16.3-0.5c1.9-0.5,5.1,0.9,5.1,0.9L399.1,247.5z"/>
        <g>
            <path d="M399.5,247.8c1-1.2,0.8-2.4-0.1-3.6c-1.4-1.8-4.7-1.2-6.6-1.2c-1.5,0-3.1-0.1-4.6-0.3c-2-0.2-5-0.3-6.4-2.1
                c-0.4-0.5-0.5-2.4-0.8-3.1c-0.4-1-0.8-1.9-1.2-2.9c-1-2.5,1.5-1.7,2.8-2.9c1-0.8,1.6-2,1.8-3.2c0.2-1.4-0.1-3.3-0.9-4.5
                c-0.9-1.3-1.8-1.5-2.1-3.3c0-0.3-0.5-0.5-0.7-0.3c-2.7,1.9-6.8,3.6-9.6,0.9c-0.4-0.3-1,0-0.8,0.5c3,10.8-12.4,9.4-18.5,8.7
                c-6.5-0.8-13.1-1.5-19.3,1.2c-2.8,1.2-4.9,3.5-6.9,5.7c-2.8,3.1-5.5,5.5-9.5,6.8c-3.1,1.1-6.4,0.9-9.5,1.8
                c-0.2,0.1-0.4,0.2-0.5,0.3c-0.5,0.4-0.5,1.2,0.1,1.5c1.7,0.9,4.7,0.2,6.5,0.1c2.6-0.3,5.2-0.6,7.7-1c1.9-0.3,3.6-0.7,5.5-0.3
                c0.7,0.2,1.6,0.7,2.3,0.7c0.9,0,1.8,0,2.7,0c22.8,0.2,45.6,0.3,68.4,0.5c0.6,0,0.6-1,0-1c-23.4-0.2-46.8-0.3-70.2-0.5
                c-1.5,0-2.6-0.8-4.3-1c-2.6-0.2-5.3,0.6-7.9,1c-2.3,0.3-4.6,0.6-7,0.7c-0.9,0.1-1.9,0.1-2.9,0c-0.6-0.1-0.3-0.1-0.4,0
                c0-0.1,0.1-0.1,0.2-0.2c0.4-0.3,1.8-0.2,2.3-0.3c1.6-0.2,3.2-0.5,4.8-0.8c5.9-1.3,9.4-4.6,13.4-9c4.9-5.5,11.5-6.5,18.6-6
                c6.5,0.5,13.2,2.2,19.6,0.5c4.4-1.2,6.9-5.5,5.7-9.8c-0.3,0.2-0.6,0.3-0.8,0.5c3.1,3,7.7,1.4,10.9-0.8c-0.2-0.1-0.5-0.2-0.7-0.3
                c0.2,1.1,0.5,2,1.3,2.7c1.4,1.2,2,2.8,1.7,4.7c-0.1,0.6-0.3,1.2-0.6,1.7c-0.7,1.3-1.9,1.1-3.1,1.5c-0.9,0.3-1.3,0.9-1.2,1.9
                c0.1,1.4,1,2.9,1.6,4.3c0.6,1.6,0.4,3.1,1.8,4.3c1.6,1.4,4.4,1.4,6.4,1.6c1.5,0.2,3.1,0.3,4.6,0.3c0.9,0,1.8,0,2.7,0
                c1.4,0,5.1,0.9,3.4,3.1C398.3,247.6,399,248.3,399.5,247.8z"/>
        </g>
    </g>
</g>
<g id="lights">
    <path fill="none" stroke="#000000" stroke-miterlimit="10" d="M179.2,181c0,0,219.3,74.3,449.5-0.5"/>
    <g>
        <path fill="#FFFFFF" d="M191.2,195.7c1.2,0.3,2.5-0.6,3.1-1.7c0.1-0.2,0.2-0.5,0.3-0.8c0.1-0.5-0.2-1-0.3-1.6
            c-0.6-1.8-1.2-3.5-2.2-5.4V185h-1.8l-0.1,1.5c-0.4,1.9-1.5,3.4-2,5.3c-0.2,0.5-0.3,1-0.2,1.5c0.1,0.3,0.2,0.5,0.3,0.7
            c0.6,1.1,1.9,1.9,3.1,1.7"/>
        <g>
            <path fill="#FFFFFF" d="M191.2,196.2c2.2,0.2,3.9-1.6,3.9-3.7c0-1.2-0.8-2.6-1.3-3.7c-0.7-1.5-0.9-2.6-0.9-4.2
                c0-0.3-0.2-0.5-0.5-0.5c-0.7,0-1.4,0-2.1,0c-0.3,0-0.5,0.2-0.5,0.5c-0.1,1.1-0.2,2-0.5,3c-0.5,1.5-1.9,3.3-1.8,4.9
                c0.1,2.2,1.7,3.9,3.9,3.7c0.6,0,0.6-1,0-1c-4.8,0.3-2-5.2-1.1-7.4c0.4-1.1,0.5-2.1,0.6-3.2c-0.2,0.2-0.3,0.3-0.5,0.5
                c0.7,0,1.4,0,2.1,0c-0.2-0.2-0.3-0.3-0.5-0.5c0,1.2,0,2.1,0.4,3.2c0.8,2.2,3.8,7.7-1.1,7.4C190.5,195.1,190.5,196.1,191.2,196.2
                L191.2,196.2z"/>
        </g>
    </g>
    <g>
        <path fill="#FFFFFF" d="M218.2,203.7c1.2,0.3,2.5-0.6,3.1-1.7c0.1-0.2,0.2-0.5,0.3-0.8c0.1-0.5-0.2-1-0.3-1.6
            c-0.6-1.8-1.2-3.5-2.2-5.4V193h-1.8l-0.1,1.5c-0.4,1.9-1.5,3.4-2,5.3c-0.2,0.5-0.3,1-0.2,1.5c0.1,0.3,0.2,0.5,0.3,0.7
            c0.6,1.1,1.9,1.9,3.1,1.7"/>
        <g>
            <path fill="#FFFFFF" d="M218.2,204.2c2.2,0.2,3.9-1.6,3.9-3.7c0-1.2-0.8-2.6-1.3-3.7c-0.7-1.5-0.9-2.6-0.9-4.2
                c0-0.3-0.2-0.5-0.5-0.5c-0.7,0-1.4,0-2.1,0c-0.3,0-0.5,0.2-0.5,0.5c-0.1,1.1-0.2,2-0.5,3c-0.5,1.5-1.9,3.3-1.8,4.9
                c0.1,2.2,1.7,3.9,3.9,3.7c0.6,0,0.6-1,0-1c-4.8,0.3-2-5.2-1.1-7.4c0.4-1.1,0.5-2.1,0.6-3.2c-0.2,0.2-0.3,0.3-0.5,0.5
                c0.7,0,1.4,0,2.1,0c-0.2-0.2-0.3-0.3-0.5-0.5c0,1.2,0,2.1,0.4,3.2c0.8,2.2,3.8,7.7-1.1,7.4C217.5,203.1,217.5,204.1,218.2,204.2
                L218.2,204.2z"/>
        </g>
    </g>
    <g>
        <path fill="#FFFFFF" d="M241.2,208.7c1.2,0.3,2.5-0.6,3.1-1.7c0.1-0.2,0.2-0.5,0.3-0.8c0.1-0.5-0.2-1-0.3-1.6
            c-0.6-1.8-1.2-3.5-2.2-5.4V198h-1.8l-0.1,1.5c-0.4,1.9-1.5,3.4-2,5.3c-0.2,0.5-0.3,1-0.2,1.5c0.1,0.3,0.2,0.5,0.3,0.7
            c0.6,1.1,1.9,1.9,3.1,1.7"/>
        <g>
            <path fill="#FFFFFF" d="M241.2,209.2c2.2,0.2,3.9-1.6,3.9-3.7c0-1.2-0.8-2.6-1.3-3.7c-0.7-1.5-0.9-2.6-0.9-4.2
                c0-0.3-0.2-0.5-0.5-0.5c-0.7,0-1.4,0-2.1,0c-0.3,0-0.5,0.2-0.5,0.5c-0.1,1.1-0.2,2-0.5,3c-0.5,1.5-1.9,3.3-1.8,4.9
                c0.1,2.2,1.7,3.9,3.9,3.7c0.6,0,0.6-1,0-1c-4.8,0.3-2-5.2-1.1-7.4c0.4-1.1,0.5-2.1,0.6-3.2c-0.2,0.2-0.3,0.3-0.5,0.5
                c0.7,0,1.4,0,2.1,0c-0.2-0.2-0.3-0.3-0.5-0.5c0,1.2,0,2.1,0.4,3.2c0.8,2.2,3.8,7.7-1.1,7.4C240.5,208.1,240.5,209.1,241.2,209.2
                L241.2,209.2z"/>
        </g>
    </g>
    <g>
        <path fill="#FFFFFF" d="M270.2,213.7c1.2,0.3,2.5-0.6,3.1-1.7c0.1-0.2,0.2-0.5,0.3-0.8c0.1-0.5-0.2-1-0.3-1.6
            c-0.6-1.8-1.2-3.5-2.2-5.4V203h-1.8l-0.1,1.5c-0.4,1.9-1.5,3.4-2,5.3c-0.2,0.5-0.3,1-0.2,1.5c0.1,0.3,0.2,0.5,0.3,0.7
            c0.6,1.1,1.9,1.9,3.1,1.7"/>
        <g>
            <path fill="#FFFFFF" d="M270.2,214.2c2.2,0.2,3.9-1.6,3.9-3.7c0-1.2-0.8-2.6-1.3-3.7c-0.7-1.5-0.9-2.6-0.9-4.2
                c0-0.3-0.2-0.5-0.5-0.5c-0.7,0-1.4,0-2.1,0c-0.3,0-0.5,0.2-0.5,0.5c-0.1,1.1-0.2,2-0.5,3c-0.5,1.5-1.9,3.3-1.8,4.9
                c0.1,2.2,1.7,3.9,3.9,3.7c0.6,0,0.6-1,0-1c-4.8,0.3-2-5.2-1.1-7.4c0.4-1.1,0.5-2.1,0.6-3.2c-0.2,0.2-0.3,0.3-0.5,0.5
                c0.7,0,1.4,0,2.1,0c-0.2-0.2-0.3-0.3-0.5-0.5c0,1.2,0,2.1,0.4,3.2c0.8,2.2,3.8,7.7-1.1,7.4C269.5,213.1,269.5,214.1,270.2,214.2
                L270.2,214.2z"/>
        </g>
    </g>
    <g>
        <path fill="#FFFFFF" d="M302.2,218.7c1.2,0.3,2.5-0.6,3.1-1.7c0.1-0.2,0.2-0.5,0.3-0.8c0.1-0.5-0.2-1-0.3-1.6
            c-0.6-1.8-1.2-3.5-2.2-5.4V208h-1.8l-0.1,1.5c-0.4,1.9-1.5,3.4-2,5.3c-0.2,0.5-0.3,1-0.2,1.5c0.1,0.3,0.2,0.5,0.3,0.7
            c0.6,1.1,1.9,1.9,3.1,1.7"/>
        <g>
            <path fill="#FFFFFF" d="M302.2,219.2c2.2,0.2,3.9-1.6,3.9-3.7c0-1.2-0.8-2.6-1.3-3.7c-0.7-1.5-0.9-2.6-0.9-4.2
                c0-0.3-0.2-0.5-0.5-0.5c-0.7,0-1.4,0-2.1,0c-0.3,0-0.5,0.2-0.5,0.5c-0.1,1.1-0.2,2-0.5,3c-0.5,1.5-1.9,3.3-1.8,4.9
                c0.1,2.2,1.7,3.9,3.9,3.7c0.6,0,0.6-1,0-1c-4.8,0.3-2-5.2-1.1-7.4c0.4-1.1,0.5-2.1,0.6-3.2c-0.2,0.2-0.3,0.3-0.5,0.5
                c0.7,0,1.4,0,2.1,0c-0.2-0.2-0.3-0.3-0.5-0.5c0,1.2,0,2.1,0.4,3.2c0.8,2.2,3.8,7.7-1.1,7.4C301.5,218.1,301.5,219.1,302.2,219.2
                L302.2,219.2z"/>
        </g>
    </g>
    <g>
        <path fill="#FFFFFF" d="M335.2,222.7c1.2,0.3,2.5-0.6,3.1-1.7c0.1-0.2,0.2-0.5,0.3-0.8c0.1-0.5-0.2-1-0.3-1.6
            c-0.6-1.8-1.2-3.5-2.2-5.4V212h-1.8l-0.1,1.5c-0.4,1.9-1.5,3.4-2,5.3c-0.2,0.5-0.3,1-0.2,1.5c0.1,0.3,0.2,0.5,0.3,0.7
            c0.6,1.1,1.9,1.9,3.1,1.7"/>
        <g>
            <path fill="#FFFFFF" d="M335.2,223.2c2.2,0.2,3.9-1.6,3.9-3.7c0-1.2-0.8-2.6-1.3-3.7c-0.7-1.5-0.9-2.6-0.9-4.2
                c0-0.3-0.2-0.5-0.5-0.5c-0.7,0-1.4,0-2.1,0c-0.3,0-0.5,0.2-0.5,0.5c-0.1,1.1-0.2,2-0.5,3c-0.5,1.5-1.9,3.3-1.8,4.9
                c0.1,2.2,1.7,3.9,3.9,3.7c0.6,0,0.6-1,0-1c-4.8,0.3-2-5.2-1.1-7.4c0.4-1.1,0.5-2.1,0.6-3.2c-0.2,0.2-0.3,0.3-0.5,0.5
                c0.7,0,1.4,0,2.1,0c-0.2-0.2-0.3-0.3-0.5-0.5c0,1.2,0,2.1,0.4,3.2c0.8,2.2,3.8,7.7-1.1,7.4C334.5,222.1,334.5,223.1,335.2,223.2
                L335.2,223.2z"/>
        </g>
    </g>
    <g>
        <path fill="#FFFFFF" d="M365.2,224.7c1.2,0.3,2.5-0.6,3.1-1.7c0.1-0.2,0.2-0.5,0.3-0.8c0.1-0.5-0.2-1-0.3-1.6
            c-0.6-1.8-1.2-3.5-2.2-5.4V214h-1.8l-0.1,1.5c-0.4,1.9-1.5,3.4-2,5.3c-0.2,0.5-0.3,1-0.2,1.5c0.1,0.3,0.2,0.5,0.3,0.7
            c0.6,1.1,1.9,1.9,3.1,1.7"/>
        <g>
            <path fill="#FFFFFF" d="M365.2,225.2c2.2,0.2,3.9-1.6,3.9-3.7c0-1.2-0.8-2.6-1.3-3.7c-0.7-1.5-0.9-2.6-0.9-4.2
                c0-0.3-0.2-0.5-0.5-0.5c-0.7,0-1.4,0-2.1,0c-0.3,0-0.5,0.2-0.5,0.5c-0.1,1.1-0.2,2-0.5,3c-0.5,1.5-1.9,3.3-1.8,4.9
                c0.1,2.2,1.7,3.9,3.9,3.7c0.6,0,0.6-1,0-1c-4.8,0.3-2-5.2-1.1-7.4c0.4-1.1,0.5-2.1,0.6-3.2c-0.2,0.2-0.3,0.3-0.5,0.5
                c0.7,0,1.4,0,2.1,0c-0.2-0.2-0.3-0.3-0.5-0.5c0,1.2,0,2.1,0.4,3.2c0.8,2.2,3.8,7.7-1.1,7.4C364.5,224.1,364.5,225.1,365.2,225.2
                L365.2,225.2z"/>
        </g>
    </g>
    <g>
        <path fill="#FFFFFF" d="M398.2,225.7c1.2,0.3,2.5-0.6,3.1-1.7c0.1-0.2,0.2-0.5,0.3-0.8c0.1-0.5-0.2-1-0.3-1.6
            c-0.6-1.8-1.2-3.5-2.2-5.4V215h-1.8l-0.1,1.5c-0.4,1.9-1.5,3.4-2,5.3c-0.2,0.5-0.3,1-0.2,1.5c0.1,0.3,0.2,0.5,0.3,0.7
            c0.6,1.1,1.9,1.9,3.1,1.7"/>
        <g>
            <path fill="#FFFFFF" d="M398.2,226.2c2.2,0.2,3.9-1.6,3.9-3.7c0-1.2-0.8-2.6-1.3-3.7c-0.7-1.5-0.9-2.6-0.9-4.2
                c0-0.3-0.2-0.5-0.5-0.5c-0.7,0-1.4,0-2.1,0c-0.3,0-0.5,0.2-0.5,0.5c-0.1,1.1-0.2,2-0.5,3c-0.5,1.5-1.9,3.3-1.8,4.9
                c0.1,2.2,1.7,3.9,3.9,3.7c0.6,0,0.6-1,0-1c-4.8,0.3-2-5.2-1.1-7.4c0.4-1.1,0.5-2.1,0.6-3.2c-0.2,0.2-0.3,0.3-0.5,0.5
                c0.7,0,1.4,0,2.1,0c-0.2-0.2-0.3-0.3-0.5-0.5c0,1.2,0,2.1,0.4,3.2c0.8,2.2,3.8,7.7-1.1,7.4C397.5,225.1,397.5,226.1,398.2,226.2
                L398.2,226.2z"/>
        </g>
    </g>
    <g>
        <path fill="#FFFFFF" d="M426.2,224.7c1.2,0.3,2.5-0.6,3.1-1.7c0.1-0.2,0.2-0.5,0.3-0.8c0.1-0.5-0.2-1-0.3-1.6
            c-0.6-1.8-1.2-3.5-2.2-5.4V214h-1.8l-0.1,1.5c-0.4,1.9-1.5,3.4-2,5.3c-0.2,0.5-0.3,1-0.2,1.5c0.1,0.3,0.2,0.5,0.3,0.7
            c0.6,1.1,1.9,1.9,3.1,1.7"/>
        <g>
            <path fill="#FFFFFF" d="M426.2,225.2c2.2,0.2,3.9-1.6,3.9-3.7c0-1.2-0.8-2.6-1.3-3.7c-0.7-1.5-0.9-2.6-0.9-4.2
                c0-0.3-0.2-0.5-0.5-0.5c-0.7,0-1.4,0-2.1,0c-0.3,0-0.5,0.2-0.5,0.5c-0.1,1.1-0.2,2-0.5,3c-0.5,1.5-1.9,3.3-1.8,4.9
                c0.1,2.2,1.7,3.9,3.9,3.7c0.6,0,0.6-1,0-1c-4.8,0.3-2-5.2-1.1-7.4c0.4-1.1,0.5-2.1,0.6-3.2c-0.2,0.2-0.3,0.3-0.5,0.5
                c0.7,0,1.4,0,2.1,0c-0.2-0.2-0.3-0.3-0.5-0.5c0,1.2,0,2.1,0.4,3.2c0.8,2.2,3.8,7.7-1.1,7.4C425.5,224.1,425.5,225.1,426.2,225.2
                L426.2,225.2z"/>
        </g>
    </g>
    <g>
        <path fill="#FFFFFF" d="M454.2,223.7c1.2,0.3,2.5-0.6,3.1-1.7c0.1-0.2,0.2-0.5,0.3-0.8c0.1-0.5-0.2-1-0.3-1.6
            c-0.6-1.8-1.2-3.5-2.2-5.4V213h-1.8l-0.1,1.5c-0.4,1.9-1.5,3.4-2,5.3c-0.2,0.5-0.3,1-0.2,1.5c0.1,0.3,0.2,0.5,0.3,0.7
            c0.6,1.1,1.9,1.9,3.1,1.7"/>
        <g>
            <path fill="#FFFFFF" d="M454.2,224.2c2.2,0.2,3.9-1.6,3.9-3.7c0-1.2-0.8-2.6-1.3-3.7c-0.7-1.5-0.9-2.6-0.9-4.2
                c0-0.3-0.2-0.5-0.5-0.5c-0.7,0-1.4,0-2.1,0c-0.3,0-0.5,0.2-0.5,0.5c-0.1,1.1-0.2,2-0.5,3c-0.5,1.5-1.9,3.3-1.8,4.9
                c0.1,2.2,1.7,3.9,3.9,3.7c0.6,0,0.6-1,0-1c-4.8,0.3-2-5.2-1.1-7.4c0.4-1.1,0.5-2.1,0.6-3.2c-0.2,0.2-0.3,0.3-0.5,0.5
                c0.7,0,1.4,0,2.1,0c-0.2-0.2-0.3-0.3-0.5-0.5c0,1.2,0,2.1,0.4,3.2c0.8,2.2,3.8,7.7-1.1,7.4C453.5,223.1,453.5,224.1,454.2,224.2
                L454.2,224.2z"/>
        </g>
    </g>
    <g>
        <path fill="#FFFFFF" d="M481.2,221.7c1.2,0.3,2.5-0.6,3.1-1.7c0.1-0.2,0.2-0.5,0.3-0.8c0.1-0.5-0.2-1-0.3-1.6
            c-0.6-1.8-1.2-3.5-2.2-5.4V211h-1.8l-0.1,1.5c-0.4,1.9-1.5,3.4-2,5.3c-0.2,0.5-0.3,1-0.2,1.5c0.1,0.3,0.2,0.5,0.3,0.7
            c0.6,1.1,1.9,1.9,3.1,1.7"/>
        <g>
            <path fill="#FFFFFF" d="M481.2,222.2c2.2,0.2,3.9-1.6,3.9-3.7c0-1.2-0.8-2.6-1.3-3.7c-0.7-1.5-0.9-2.6-0.9-4.2
                c0-0.3-0.2-0.5-0.5-0.5c-0.7,0-1.4,0-2.1,0c-0.3,0-0.5,0.2-0.5,0.5c-0.1,1.1-0.2,2-0.5,3c-0.5,1.5-1.9,3.3-1.8,4.9
                c0.1,2.2,1.7,3.9,3.9,3.7c0.6,0,0.6-1,0-1c-4.8,0.3-2-5.2-1.1-7.4c0.4-1.1,0.5-2.1,0.6-3.2c-0.2,0.2-0.3,0.3-0.5,0.5
                c0.7,0,1.4,0,2.1,0c-0.2-0.2-0.3-0.3-0.5-0.5c0,1.2,0,2.1,0.4,3.2c0.8,2.2,3.8,7.7-1.1,7.4C480.5,221.1,480.5,222.1,481.2,222.2
                L481.2,222.2z"/>
        </g>
    </g>
    <g>
        <path fill="#FFFFFF" d="M508.2,218.7c1.2,0.3,2.5-0.6,3.1-1.7c0.1-0.2,0.2-0.5,0.3-0.8c0.1-0.5-0.2-1-0.3-1.6
            c-0.6-1.8-1.2-3.5-2.2-5.4V208h-1.8l-0.1,1.5c-0.4,1.9-1.5,3.4-2,5.3c-0.2,0.5-0.3,1-0.2,1.5c0.1,0.3,0.2,0.5,0.3,0.7
            c0.6,1.1,1.9,1.9,3.1,1.7"/>
        <g>
            <path fill="#FFFFFF" d="M508.2,219.2c2.2,0.2,3.9-1.6,3.9-3.7c0-1.2-0.8-2.6-1.3-3.7c-0.7-1.5-0.9-2.6-0.9-4.2
                c0-0.3-0.2-0.5-0.5-0.5c-0.7,0-1.4,0-2.1,0c-0.3,0-0.5,0.2-0.5,0.5c-0.1,1.1-0.2,2-0.5,3c-0.5,1.5-1.9,3.3-1.8,4.9
                c0.1,2.2,1.7,3.9,3.9,3.7c0.6,0,0.6-1,0-1c-4.8,0.3-2-5.2-1.1-7.4c0.4-1.1,0.5-2.1,0.6-3.2c-0.2,0.2-0.3,0.3-0.5,0.5
                c0.7,0,1.4,0,2.1,0c-0.2-0.2-0.3-0.3-0.5-0.5c0,1.2,0,2.1,0.4,3.2c0.8,2.2,3.8,7.7-1.1,7.4C507.5,218.1,507.5,219.1,508.2,219.2
                L508.2,219.2z"/>
        </g>
    </g>
    <g>
        <path fill="#FFFFFF" d="M535.2,214.7c1.2,0.3,2.5-0.6,3.1-1.7c0.1-0.2,0.2-0.5,0.3-0.8c0.1-0.5-0.2-1-0.3-1.6
            c-0.6-1.8-1.2-3.5-2.2-5.4V204h-1.8l-0.1,1.5c-0.4,1.9-1.5,3.4-2,5.3c-0.2,0.5-0.3,1-0.2,1.5c0.1,0.3,0.2,0.5,0.3,0.7
            c0.6,1.1,1.9,1.9,3.1,1.7"/>
        <g>
            <path fill="#FFFFFF" d="M535.2,215.2c2.2,0.2,3.9-1.6,3.9-3.7c0-1.2-0.8-2.6-1.3-3.7c-0.7-1.5-0.9-2.6-0.9-4.2
                c0-0.3-0.2-0.5-0.5-0.5c-0.7,0-1.4,0-2.1,0c-0.3,0-0.5,0.2-0.5,0.5c-0.1,1.1-0.2,2-0.5,3c-0.5,1.5-1.9,3.3-1.8,4.9
                c0.1,2.2,1.7,3.9,3.9,3.7c0.6,0,0.6-1,0-1c-4.8,0.3-2-5.2-1.1-7.4c0.4-1.1,0.5-2.1,0.6-3.2c-0.2,0.2-0.3,0.3-0.5,0.5
                c0.7,0,1.4,0,2.1,0c-0.2-0.2-0.3-0.3-0.5-0.5c0,1.2,0,2.1,0.4,3.2c0.8,2.2,3.8,7.7-1.1,7.4C534.5,214.1,534.5,215.1,535.2,215.2
                L535.2,215.2z"/>
        </g>
    </g>
    <g>
        <path fill="#FFFFFF" d="M561.2,209.7c1.2,0.3,2.5-0.6,3.1-1.7c0.1-0.2,0.2-0.5,0.3-0.8c0.1-0.5-0.2-1-0.3-1.6
            c-0.6-1.8-1.2-3.5-2.2-5.4V199h-1.8l-0.1,1.5c-0.4,1.9-1.5,3.4-2,5.3c-0.2,0.5-0.3,1-0.2,1.5c0.1,0.3,0.2,0.5,0.3,0.7
            c0.6,1.1,1.9,1.9,3.1,1.7"/>
        <g>
            <path fill="#FFFFFF" d="M561.2,210.2c2.2,0.2,3.9-1.6,3.9-3.7c0-1.2-0.8-2.6-1.3-3.7c-0.7-1.5-0.9-2.6-0.9-4.2
                c0-0.3-0.2-0.5-0.5-0.5c-0.7,0-1.4,0-2.1,0c-0.3,0-0.5,0.2-0.5,0.5c-0.1,1.1-0.2,2-0.5,3c-0.5,1.5-1.9,3.3-1.8,4.9
                c0.1,2.2,1.7,3.9,3.9,3.7c0.6,0,0.6-1,0-1c-4.8,0.3-2-5.2-1.1-7.4c0.4-1.1,0.5-2.1,0.6-3.2c-0.2,0.2-0.3,0.3-0.5,0.5
                c0.7,0,1.4,0,2.1,0c-0.2-0.2-0.3-0.3-0.5-0.5c0,1.2,0,2.1,0.4,3.2c0.8,2.2,3.8,7.7-1.1,7.4C560.5,209.1,560.5,210.1,561.2,210.2
                L561.2,210.2z"/>
        </g>
    </g>
    <g>
        <path fill="#FFFFFF" d="M587.2,203.7c1.2,0.3,2.5-0.6,3.1-1.7c0.1-0.2,0.2-0.5,0.3-0.8c0.1-0.5-0.2-1-0.3-1.6
            c-0.6-1.8-1.2-3.5-2.2-5.4V193h-1.8l-0.1,1.5c-0.4,1.9-1.5,3.4-2,5.3c-0.2,0.5-0.3,1-0.2,1.5c0.1,0.3,0.2,0.5,0.3,0.7
            c0.6,1.1,1.9,1.9,3.1,1.7"/>
        <g>
            <path fill="#FFFFFF" d="M587.2,204.2c2.2,0.2,3.9-1.6,3.9-3.7c0-1.2-0.8-2.6-1.3-3.7c-0.7-1.5-0.9-2.6-0.9-4.2
                c0-0.3-0.2-0.5-0.5-0.5c-0.7,0-1.4,0-2.1,0c-0.3,0-0.5,0.2-0.5,0.5c-0.1,1.1-0.2,2-0.5,3c-0.5,1.5-1.9,3.3-1.8,4.9
                c0.1,2.2,1.7,3.9,3.9,3.7c0.6,0,0.6-1,0-1c-4.8,0.3-2-5.2-1.1-7.4c0.4-1.1,0.5-2.1,0.6-3.2c-0.2,0.2-0.3,0.3-0.5,0.5
                c0.7,0,1.4,0,2.1,0c-0.2-0.2-0.3-0.3-0.5-0.5c0,1.2,0,2.1,0.4,3.2c0.8,2.2,3.8,7.7-1.1,7.4C586.5,203.1,586.5,204.1,587.2,204.2
                L587.2,204.2z"/>
        </g>
    </g>
    <g>
        <path fill="#FFFFFF" d="M613.2,196.7c1.2,0.3,2.5-0.6,3.1-1.7c0.1-0.2,0.2-0.5,0.3-0.8c0.1-0.5-0.2-1-0.3-1.6
            c-0.6-1.8-1.2-3.5-2.2-5.4V186h-1.8l-0.1,1.5c-0.4,1.9-1.5,3.4-2,5.3c-0.2,0.5-0.3,1-0.2,1.5c0.1,0.3,0.2,0.5,0.3,0.7
            c0.6,1.1,1.9,1.9,3.1,1.7"/>
        <g>
            <path fill="#FFFFFF" d="M613.2,197.2c2.2,0.2,3.9-1.6,3.9-3.7c0-1.2-0.8-2.6-1.3-3.7c-0.7-1.5-0.9-2.6-0.9-4.2
                c0-0.3-0.2-0.5-0.5-0.5c-0.7,0-1.4,0-2.1,0c-0.3,0-0.5,0.2-0.5,0.5c-0.1,1.1-0.2,2-0.5,3c-0.5,1.5-1.9,3.3-1.8,4.9
                c0.1,2.2,1.7,3.9,3.9,3.7c0.6,0,0.6-1,0-1c-4.8,0.3-2-5.2-1.1-7.4c0.4-1.1,0.5-2.1,0.6-3.2c-0.2,0.2-0.3,0.3-0.5,0.5
                c0.7,0,1.4,0,2.1,0c-0.2-0.2-0.3-0.3-0.5-0.5c0,1.2,0,2.1,0.4,3.2c0.8,2.2,3.8,7.7-1.1,7.4C612.5,196.1,612.5,197.1,613.2,197.2
                L613.2,197.2z"/>
        </g>
    </g>
</g>
<g id="awning">
    <linearGradient id="SVGID_2_" gradientUnits="userSpaceOnUse" x1="410.7054" y1="461.7944" x2="400.7054" y2="21.1277">
        <stop  offset="0.4187" style="stop-color:#FFA41B"/>
        <stop  offset="0.4583" style="stop-color:#FC9E1D"/>
        <stop  offset="0.5098" style="stop-color:#F28E24"/>
        <stop  offset="0.5678" style="stop-color:#E2732F"/>
        <stop  offset="0.6306" style="stop-color:#CC4E3E"/>
        <stop  offset="0.6965" style="stop-color:#B01E51"/>
        <stop  offset="0.734" style="stop-color:#9E005D"/>
    </linearGradient>
    <polygon fill="url(#SVGID_2_)" points="241,145 564,145 629.7,181 179,181     "/>
    <line fill="#FFFFFF" stroke="#000000" stroke-width="4" stroke-miterlimit="10" x1="629.7" y1="180.5" x2="576.3" y2="319"/>
    <line fill="none" stroke="#000000" stroke-width="4" stroke-miterlimit="10" x1="179" y1="180.5" x2="237" y2="319"/>
</g>
<g id="chair_fabric">
    <line fill="none" stroke="#000000" stroke-miterlimit="10" x1="289.3" y1="399.4" x2="268" y2="354.2"/>
    <polyline fill="none" stroke="#000000" stroke-miterlimit="10" points="223.7,396.9 237,384.8 253.5,352.5     "/>
    <g>
        <defs>
            <polyline id="XMLID_5_" points="276.5,352.6 276.5,354.8 235,352 235,348.2 280.7,351.2 276.6,352.6 236.2,350             "/>
        </defs>
        <use xlink:href="#XMLID_5_"  overflow="visible" fill="#F2F2F2"/>
        <clipPath id="XMLID_8_">
            <use xlink:href="#XMLID_5_"  overflow="visible"/>
        </clipPath>
        <polygon clip-path="url(#XMLID_8_)" fill="#B3B3B3" points="277.2,366 233.3,363.1 236,349.5 276.4,352.2         "/>
    </g>
    <linearGradient id="SVGID_3_" gradientUnits="userSpaceOnUse" x1="195.2845" y1="472.3208" x2="279.9512" y2="337.6541">
        <stop  offset="0.2414" style="stop-color:#9E005D"/>
        <stop  offset="0.3897" style="stop-color:#A0035C"/>
        <stop  offset="0.5025" style="stop-color:#A60D58"/>
        <stop  offset="0.6036" style="stop-color:#AF1D51"/>
        <stop  offset="0.6978" style="stop-color:#BD3448"/>
        <stop  offset="0.7873" style="stop-color:#CE523C"/>
        <stop  offset="0.8732" style="stop-color:#E4762D"/>
        <stop  offset="0.9548" style="stop-color:#FDA11C"/>
        <stop  offset="0.9606" style="stop-color:#FFA41B"/>
    </linearGradient>
    <path fill="url(#SVGID_3_)" d="M264.5,405.1l-50.1-10.5c-2.3-0.5-3-3.5-1.2-5l23.5-18.6c0.7-0.5,1.5-0.7,2.3-0.5l45.3,9.5
        c1.4,0.3,2.2,1.8,1.5,2.9l-12,18.6C272,404.4,268.2,405.8,264.5,405.1z"/>
    <path fill="none" stroke="#000000" stroke-miterlimit="10" d="M235.5,375.3"/>
    <linearGradient id="SVGID_4_" gradientUnits="userSpaceOnUse" x1="127.4507" y1="420.5478" x2="275.9507" y2="307.0478">
        <stop  offset="0" style="stop-color:#005082"/>
        <stop  offset="0.1227" style="stop-color:#034E81"/>
        <stop  offset="0.216" style="stop-color:#0D4A7F"/>
        <stop  offset="0.2996" style="stop-color:#1D417B"/>
        <stop  offset="0.3775" style="stop-color:#343676"/>
        <stop  offset="0.4515" style="stop-color:#52276F"/>
        <stop  offset="0.5216" style="stop-color:#761466"/>
        <stop  offset="0.5862" style="stop-color:#9E005D"/>
    </linearGradient>
    <path fill="url(#SVGID_4_)" d="M237.6,369.2l-20.9,16c-3.6,2.7-7.3,2.7-8.1-0.1l-13.2-46c-0.8-2.9,2.1-5.9,6.2-6.6l24.2-4.3
        c2.3-0.4,4.6,0.9,5.2,2.9l9.2,31.9C240.7,364.8,239.6,367.7,237.6,369.2z"/>
</g>
<g id="human">
</g>
<g id="chair_support">
    <polyline fill="none" stroke="#000000" stroke-miterlimit="10" points="237.4,376.4 262.5,436.1 289.5,399.8 289.3,399.4     "/>
    <path fill="#F2F2F2" d="M201.7,362.8l53.1,9.1c0.3,0,0.4,0.4,0.2,0.6l-3.9,3.7c-0.1,0.1-0.2,0.1-0.3,0.1l-54-10
        c-0.3-0.1-0.4-0.5-0.1-0.7l4.8-2.7C201.6,362.8,201.7,362.7,201.7,362.8z"/>
    <polygon fill="#999999" points="197,369.1 197,366.2 251,375.3 251,379     "/>
    <polyline fill="none" stroke="#000000" stroke-miterlimit="10" points="217.8,373.3 199,419.5 223.7,396.9     "/>
    <polyline fill="#F2F2F2" points="250.7,375.2 255,372.2 255,375.6 250.8,379     "/>
    <polyline id="XMLID_4_" fill="#F2F2F2" points="276.4,354.7 280.6,353 280.6,351.3 276.4,352.2     "/>
</g>
<g id="grill">
    <path fill="none" stroke="#000000" stroke-width="3" stroke-miterlimit="10" d="M366.6,264.3h22.4v0c0-3.6-2.9-6.6-6.6-6.6h-9.2
        C369.5,257.8,366.6,260.7,366.6,264.3L366.6,264.3z"/>
    <path fill="#000827" stroke="#000000" stroke-miterlimit="10" d="M399,264.3h-41.4c-5.9,0-10.7,4.8-10.7,10.7v10.5h62.8V275
        C409.8,269.1,405,264.3,399,264.3z"/>
    <path fill="#000827" stroke="#000000" stroke-miterlimit="10" d="M411.8,300.5h-67c-0.9,0-1.7-0.8-1.7-1.7v-6.9h70.6v6.7
        C413.7,299.7,412.8,300.5,411.8,300.5z"/>
    <polygon fill="#BF7B14" stroke="#000000" stroke-miterlimit="10" points="413.7,291.9 343.1,291.9 347,285.5 409.8,285.5     "/>
</g>
<g id="fireflies">
    <circle fill="#FCEE21" cx="144.4" cy="152.2" r="3.4"/>
    <circle fill="#FCEE21" cx="253.4" cy="135.2" r="3.4"/>
    <circle fill="#FCEE21" cx="460.4" cy="91.2" r="3.4"/>
    <circle fill="#FCEE21" cx="664.4" cy="248.2" r="3.4"/>
    <circle fill="#FCEE21" cx="728.4" cy="256.2" r="3.4"/>
    <circle fill="#FCEE21" cx="652.4" cy="86.2" r="3.4"/>
    <circle fill="#FCEE21" cx="762.4" cy="162.2" r="3.4"/>
    <circle fill="#FCEE21" cx="608.4" cy="62.2" r="3.4"/>
    <circle fill="#FCEE21" cx="573.4" cy="339.2" r="3.4"/>
    <circle fill="#FCEE21" cx="399.4" cy="321.2" r="3.4"/>
    <circle fill="#FCEE21" cx="238.4" cy="248.2" r="3.4"/>
    <circle fill="#FCEE21" cx="144.4" cy="302.2" r="3.4"/>
</g>
</svg>
